<svg width="122" height="20" viewBox="0 0 122 20" fill="none" xmlns="http://www.w3.org/2000/svg">
<path d="M0.120875 20V0.399999H3.87288L12.2169 14.232H10.2289L18.4329 0.399999H22.1569L22.2129 20H17.9569L17.9289 6.924H18.7129L12.1609 17.928H10.1169L3.42488 6.924H4.37688V20H0.120875ZM24.2871 20L33.0231 0.399999H37.5031L46.2671 20H41.5071L34.3391 2.696H36.1311L28.9351 20H24.2871ZM28.6551 15.8L29.8591 12.356H39.9391L41.1711 15.8H28.6551ZM48.3006 20V0.399999H56.7846C58.5392 0.399999 60.0512 0.689332 61.3206 1.268C62.5899 1.828 63.5699 2.64 64.2606 3.704C64.9512 4.768 65.2966 6.03733 65.2966 7.512C65.2966 8.968 64.9512 10.228 64.2606 11.292C63.5699 12.3373 62.5899 13.14 61.3206 13.7C60.0512 14.26 58.5392 14.54 56.7846 14.54H50.8206L52.8366 12.552V20H48.3006ZM60.7606 20L55.8606 12.888H60.7046L65.6606 20H60.7606ZM52.8366 13.056L50.8206 10.928H56.5326C57.9326 10.928 58.9779 10.6293 59.6686 10.032C60.3592 9.416 60.7046 8.576 60.7046 7.512C60.7046 6.42933 60.3592 5.58933 59.6686 4.992C58.9779 4.39467 57.9326 4.096 56.5326 4.096H50.8206L52.8366 1.94V13.056ZM72.677 20V4.096H66.405V0.399999H83.485V4.096H77.213V20H72.677ZM82.3652 20L91.1012 0.399999H95.5812L104.345 20H99.5852L92.4172 2.696H94.2092L87.0132 20H82.3652ZM86.7332 15.8L87.9372 12.356H98.0172L99.2492 15.8H86.7332ZM110.579 9.22H119.987V12.86H110.579V9.22ZM110.915 20H106.379V0.399999H121.191V4.04H110.915V20Z" fill="white"/>
</svg>
