<svg width="51" height="42" viewBox="0 0 51 42" fill="none" xmlns="http://www.w3.org/2000/svg">
<path d="M2.43853 9.08994C0.882387 9.58162 1.00213 9.68844 1.00213 9.68844C1.23671 10.4734 1.46487 10.8222 2.0794 11.2445L3.037 11.1248C3.44131 11.1399 3.58898 11.3723 3.8749 11.7233C4.00747 18.204 4.11821 21.8422 3.6355 28.2419C3.33417 29.6356 3.14497 29.9149 2.7976 30.1571L1.6006 30.6359C1.14418 31.4153 1.15957 31.9055 1.2415 32.7905C1.9178 32.8157 5.69284 32.9012 11.2963 33.0299C10.7103 35.2192 10.3655 35.7815 9.7402 36.3815C9.19274 36.7305 8.82602 36.9396 8.0644 37.3391L6.1492 38.2967C5.41059 38.8278 5.23892 39.604 5.3113 40.3316C6.20713 41.189 6.79871 41.1664 7.825 41.2892H18.4783C19.3786 41.2011 19.4941 41.0991 19.795 40.9301C20.1597 40.5569 20.2878 40.2927 20.3935 39.7331C20.2815 39.0408 20.1828 38.8237 20.0344 38.4164L19.795 38.177C19.8336 38.105 19.4196 38.0095 18.4783 38.0573C17.1049 37.8829 16.3667 37.7665 15.8449 37.0997C15.2386 36.4752 15.0265 36.1366 14.7676 35.5436C14.7169 34.5655 14.7274 34.2654 14.7676 33.8678C14.8167 33.0332 14.9871 32.4877 15.3661 31.4738L17.6404 26.5661C18.2156 25.1799 18.2254 24.8588 18.2389 24.2918C18.219 23.7157 18.152 23.2621 17.9995 22.3766C17.4045 21.3667 17.0605 21.1653 16.4434 20.9402C16.2861 20.8794 15.5841 22.4497 12.7327 29.4389C11.5521 28.277 11.5376 23.531 11.7751 13.3991C15.4092 17.6563 19.0828 22.8086 25.8997 31.1147C26.8684 30.5035 27.305 30.1625 27.8149 29.5586C28.414 28.7254 28.5268 28.3283 28.6528 27.6434C28.7699 26.8441 28.7338 26.4568 28.5331 25.8479C28.2085 24.6486 27.8756 24.075 27.2164 23.0948H26.4982C25.5482 23.0628 24.4573 21.8036 21.9496 18.3068C21.422 17.2998 21.6444 16.6683 21.9496 15.5537C22.5024 13.8036 22.8669 13.2144 23.5057 12.0824L32.2438 33.2693C32.6803 34.6264 32.8705 35.2884 32.962 36.0224C32.9981 36.8728 32.9919 37.1051 32.962 37.3391C31.2341 37.644 30.2284 37.8329 28.174 38.2967C27.9588 39.0914 28.1119 39.537 28.174 40.3316C28.6313 40.9534 28.8904 41.2316 29.371 41.2892H46.0093L46.2487 41.0498C46.4626 40.6903 46.5626 40.4597 46.6078 39.8528C46.6191 39.1106 46.5862 38.8481 46.4881 38.5361C46.248 38.2778 46.0875 38.1488 45.7699 37.9376H44.0941C43.3638 37.7507 42.9418 37.3478 42.1789 36.3815C41.6945 35.2287 41.4519 34.491 41.1016 32.9102H50.6776V31.8329C50.6023 31.0648 50.4168 30.9127 50.0936 30.6478L50.0791 30.6359L49.1215 30.2768C48.4714 29.9435 48.2419 29.1551 48.0442 26.8055V11.6036C48.3957 11.2769 48.6067 11.1816 49.0018 11.1248C49.509 11.117 49.6983 11.1183 49.9594 11.1248C50.372 10.6115 50.5959 10.3196 50.7973 9.68844C50.175 9.16184 49.5007 8.9963 47.9245 8.85054L39.1864 8.97024C38.1628 9.17849 37.6684 9.33572 36.9121 9.68844C35.1504 11.7365 34.7788 12.1725 34.1886 12.8649L34.0393 13.04C34.1231 15.2675 34.6641 16.3798 35.8348 18.3068L40.0243 13.3991V28.4813C39.9822 29.0405 39.8489 29.0947 39.6652 29.3192C39.5854 29.3591 39.4019 29.4389 39.3061 29.4389C34.1735 16.0187 28.836 2.36088 27.4558 0.710938H25.0618C24.5979 0.815663 24.3621 0.99282 23.9845 1.54884L18.7177 14.4764C17.3841 12.616 16.6029 11.571 14.8873 9.68844C14.2671 9.28178 13.915 9.05658 12.9721 8.85054C7.84706 8.64916 3.99467 8.59825 2.43853 9.08994Z" fill="white" stroke="white" stroke-width="0.2394" stroke-linejoin="round"/>
</svg>
